Coordinates
version=1
nRows=6
nColumns=63
inDegrees=yes

Units are S.I. units (second, meters, Newtons, ...)
If the header above contains a line with 'inDegrees', this indicates whether rotational values are in degrees (yes) or radians (no).

endheader
time	pelvis_tilt	pelvis_list	pelvis_rotation	pelvis_tx	pelvis_ty	pelvis_tz	hip_flexion_r	hip_adduction_r	hip_rotation_r	knee_angle_r	knee_angle_r_beta	ankle_angle_r	subtalar_angle_r	mtp_angle_r	hip_flexion_l	hip_adduction_l	hip_rotation_l	knee_angle_l	knee_angle_l_beta	ankle_angle_l	subtalar_angle_l	mtp_angle_l	L5_S1_Flex_Ext	L5_S1_Lat_Bending	L5_S1_axial_rotation	L4_L5_Flex_Ext	L4_L5_Lat_Bending	L4_L5_axial_rotation	L3_L4_Flex_Ext	L3_L4_Lat_Bending	L3_L4_axial_rotation	L2_L3_Flex_Ext	L2_L3_Lat_Bending	L2_L3_axial_rotation	L1_L2_Flex_Ext	L1_L2_Lat_Bending	L1_L2_axial_rotation	L1_T12_Flex_Ext	L1_T12_Lat_Bending	L1_T12_axial_rotation	Abs_r3	Abs_r2	Abs_r1	Abs_t1	Abs_t2	neck_flexion	neck_bending	neck_rotation	arm_flex_r	arm_add_r	arm_rot_r	elbow_flex_r	pro_sup_r	wrist_flex_r	wrist_dev_r	arm_flex_l	arm_add_l	arm_rot_l	elbow_flex_l	pro_sup_l	wrist_flex_l	wrist_dev_l
4.933333	3.907819	-2.361840	93.244403	0.226614	0.788529	0.568516	-4.457064	4.591012	4.498920	0.479864	0.008375	18.519017	-14.605602	0.000000	-1.521932	-5.526085	-3.806388	7.576825	0.132241	34.934296	3.870319	0.000000	-0.505600	0.898125	-1.452226	-0.938950	1.194506	-1.542991	-0.830651	2.183700	-1.542991	-0.577850	2.183700	-1.270698	-0.469500	1.831456	-1.179934	-0.288900	1.391195	-1.089170	-3.611452	10.159765	-8.076848	0.000000	0.000000	16.993116	-8.222120	4.669269	6.176991	-15.726938	146.762691	2.353214	18.721478	-3.987584	-2.348773	-5.146661	-13.268866	35.370850	23.918211	65.136135	-12.813276	-11.191978
4.955556	3.753087	-2.342336	93.270918	0.226829	0.788719	0.568722	-4.478117	4.454379	4.324521	0.485063	0.008466	18.452774	-14.551975	0.000000	-1.548150	-5.387308	-3.523344	7.526426	0.131361	34.652881	3.576588	0.000000	-0.505606	0.872828	-1.449535	-0.938961	1.160861	-1.540131	-0.830660	2.122194	-1.540131	-0.577857	2.122194	-1.268343	-0.469506	1.779871	-1.177747	-0.288903	1.352011	-1.087151	-3.611492	9.873607	-8.061880	0.000000	0.000000	17.043028	-8.154512	4.334120	6.119519	-15.607466	144.223153	2.645930	16.754322	-3.499557	-2.185238	-4.887170	-13.457518	36.833880	23.607153	63.752109	-12.875949	-11.062839
4.977778	3.628120	-2.304639	93.225489	0.227184	0.788928	0.568868	-4.520493	4.356125	4.179148	0.491890	0.008585	18.324217	-14.532149	0.000000	-1.688015	-5.263823	-2.899746	7.336924	0.128053	34.126612	2.756601	0.000000	-0.507506	0.849862	-1.436956	-0.942489	1.130316	-1.526766	-0.833781	2.066354	-1.526766	-0.580028	2.066354	-1.257336	-0.471270	1.733038	-1.167527	-0.289989	1.316436	-1.077717	-3.625061	9.613806	-7.991917	0.000000	0.000000	17.026322	-8.122334	3.880698	6.055962	-15.481237	141.597888	2.977555	14.750488	-3.024100	-2.008581	-4.617956	-13.639815	38.302871	23.269632	62.496050	-13.030740	-11.040812
5.000000	3.524303	-2.259613	93.128444	0.227628	0.789133	0.569034	-4.569218	4.287366	4.008768	0.492463	0.008595	18.180268	-14.530294	0.000000	-1.888069	-5.146970	-2.011443	7.078001	0.123534	33.449524	1.528615	0.000000	-0.510706	0.829236	-1.415150	-0.948432	1.102884	-1.503597	-0.839038	2.016205	-1.503597	-0.583686	2.016205	-1.238256	-0.474241	1.690979	-1.149809	-0.291817	1.284487	-1.061362	-3.647920	9.380488	-7.870638	0.000000	0.000000	16.991331	-8.098821	3.397022	5.971194	-15.360222	138.637545	3.329460	12.609042	-2.552697	-1.812702	-4.382431	-13.807282	39.581641	23.004875	61.223685	-13.151300	-11.019748
5.022222	3.422034	-2.196135	92.971402	0.228267	0.789315	0.569275	-4.629383	4.231020	3.843784	0.490879	0.008567	18.080228	-14.525719	0.000000	-2.165609	-5.026286	-0.918937	6.725396	0.117380	32.644403	-0.054930	0.000000	-0.518055	0.806780	-1.379689	-0.962080	1.073017	-1.465920	-0.851112	1.961604	-1.465920	-0.592085	1.961604	-1.207228	-0.481066	1.645185	-1.120997	-0.296017	1.249702	-1.034767	-3.700414	9.126454	-7.673417	0.000000	0.000000	16.944872	-8.065570	2.834259	5.881402	-15.230010	135.213206	3.728396	10.497535	-2.122923	-1.644931	-4.448869	-14.167841	37.242373	23.435295	63.133821	-13.566516	-10.593669
5.044444	3.358244	-2.134094	92.736863	0.228962	0.789528	0.569586	-4.679658	4.212838	3.744688	0.488843	0.008532	17.977316	-14.552002	0.000000	-2.505869	-4.927966	0.277289	6.267504	0.109389	31.755953	-1.869701	0.000000	-0.526564	0.789791	-1.324051	-0.977881	1.050422	-1.406804	-0.865091	1.920297	-1.406804	-0.601810	1.920297	-1.158545	-0.488967	1.610541	-1.075792	-0.300878	1.223386	-0.993038	-3.761191	8.934270	-7.363976	0.000000	0.000000	16.882766	-8.079241	2.224812	5.818302	-15.130528	132.090795	4.127781	8.466005	-1.761449	-1.535552	-4.314469	-14.377964	36.831426	23.466025	63.525412	-13.820120	-10.413783
